<mxfile host="app.diagrams.net" agent="Mozilla/5.0 (Windows NT 10.0; Win64; x64; rv:131.0) Gecko/20100101 Firefox/131.0" version="24.7.7">
  <diagram name="Page-1" id="qphBdAdTYp3i-4IxlgE5">
    <mxGraphModel dx="1434" dy="773" grid="1" gridSize="10" guides="0" tooltips="1" connect="1" arrows="0" fold="1" page="1" pageScale="1" pageWidth="827" pageHeight="1169" math="0" shadow="0">
      <root>
        <mxCell id="0" />
        <mxCell id="1" parent="0" />
        <mxCell id="HATQA0RXlhxqk_X1tqD0-1" value="Academia" style="rounded=0;whiteSpace=wrap;html=1;fillColor=#fff2cc;strokeColor=#d6b656;" vertex="1" parent="1">
          <mxGeometry x="230" y="320" width="80" height="40" as="geometry" />
        </mxCell>
        <mxCell id="HATQA0RXlhxqk_X1tqD0-2" value="Cliente" style="rounded=0;whiteSpace=wrap;html=1;fillColor=#fff2cc;strokeColor=#d6b656;" vertex="1" parent="1">
          <mxGeometry x="520" y="320" width="80" height="40" as="geometry" />
        </mxCell>
        <mxCell id="HATQA0RXlhxqk_X1tqD0-3" value="treinar" style="rhombus;whiteSpace=wrap;html=1;fillColor=#dae8fc;strokeColor=#6c8ebf;" vertex="1" parent="1">
          <mxGeometry x="390" y="312.5" width="60" height="55" as="geometry" />
        </mxCell>
        <mxCell id="HATQA0RXlhxqk_X1tqD0-6" value="N" style="endArrow=none;html=1;rounded=0;exitX=1;exitY=0.5;exitDx=0;exitDy=0;entryX=0;entryY=0.5;entryDx=0;entryDy=0;" edge="1" parent="1">
          <mxGeometry width="50" height="50" relative="1" as="geometry">
            <mxPoint x="310" y="339.5" as="sourcePoint" />
            <mxPoint x="390" y="339.5" as="targetPoint" />
          </mxGeometry>
        </mxCell>
        <mxCell id="HATQA0RXlhxqk_X1tqD0-7" value="N" style="endArrow=none;html=1;rounded=0;entryX=1;entryY=0.5;entryDx=0;entryDy=0;exitX=0;exitY=0.5;exitDx=0;exitDy=0;" edge="1" parent="1" source="HATQA0RXlhxqk_X1tqD0-2" target="HATQA0RXlhxqk_X1tqD0-3">
          <mxGeometry width="50" height="50" relative="1" as="geometry">
            <mxPoint x="390" y="400" as="sourcePoint" />
            <mxPoint x="440" y="350" as="targetPoint" />
          </mxGeometry>
        </mxCell>
        <mxCell id="HATQA0RXlhxqk_X1tqD0-14" value="escrever" style="rhombus;whiteSpace=wrap;html=1;fillColor=#dae8fc;strokeColor=#6c8ebf;" vertex="1" parent="1">
          <mxGeometry x="530" y="210" width="60" height="55" as="geometry" />
        </mxCell>
        <mxCell id="HATQA0RXlhxqk_X1tqD0-16" value="receber" style="rhombus;whiteSpace=wrap;html=1;fillColor=#dae8fc;strokeColor=#6c8ebf;" vertex="1" parent="1">
          <mxGeometry x="240" y="210" width="60" height="55" as="geometry" />
        </mxCell>
        <mxCell id="HATQA0RXlhxqk_X1tqD0-17" value="1" style="endArrow=none;html=1;rounded=0;exitX=0.5;exitY=1;exitDx=0;exitDy=0;entryX=0.5;entryY=0;entryDx=0;entryDy=0;" edge="1" parent="1" source="HATQA0RXlhxqk_X1tqD0-16" target="HATQA0RXlhxqk_X1tqD0-1">
          <mxGeometry width="50" height="50" relative="1" as="geometry">
            <mxPoint x="390" y="400" as="sourcePoint" />
            <mxPoint x="440" y="350" as="targetPoint" />
          </mxGeometry>
        </mxCell>
        <mxCell id="HATQA0RXlhxqk_X1tqD0-21" value="1" style="endArrow=none;html=1;rounded=0;entryX=0.5;entryY=1;entryDx=0;entryDy=0;exitX=0.5;exitY=0;exitDx=0;exitDy=0;" edge="1" parent="1" source="HATQA0RXlhxqk_X1tqD0-2" target="HATQA0RXlhxqk_X1tqD0-14">
          <mxGeometry width="50" height="50" relative="1" as="geometry">
            <mxPoint x="390" y="400" as="sourcePoint" />
            <mxPoint x="440" y="350" as="targetPoint" />
          </mxGeometry>
        </mxCell>
        <mxCell id="HATQA0RXlhxqk_X1tqD0-22" value="" style="rounded=0;whiteSpace=wrap;html=1;fillColor=#ffe6cc;strokeColor=#d79b00;" vertex="1" parent="1">
          <mxGeometry x="366" y="150" width="96" height="50" as="geometry" />
        </mxCell>
        <mxCell id="HATQA0RXlhxqk_X1tqD0-23" value="Avaliação" style="rhombus;whiteSpace=wrap;html=1;fillColor=#fff2cc;strokeColor=#d6b656;" vertex="1" parent="1">
          <mxGeometry x="370" y="150" width="90" height="50" as="geometry" />
        </mxCell>
        <mxCell id="HATQA0RXlhxqk_X1tqD0-24" value="N" style="endArrow=none;html=1;rounded=0;entryX=0;entryY=0.5;entryDx=0;entryDy=0;exitX=1;exitY=0;exitDx=0;exitDy=0;" edge="1" parent="1" source="HATQA0RXlhxqk_X1tqD0-16" target="HATQA0RXlhxqk_X1tqD0-22">
          <mxGeometry width="50" height="50" relative="1" as="geometry">
            <mxPoint x="390" y="400" as="sourcePoint" />
            <mxPoint x="440" y="350" as="targetPoint" />
          </mxGeometry>
        </mxCell>
        <mxCell id="HATQA0RXlhxqk_X1tqD0-25" value="N" style="endArrow=none;html=1;rounded=0;entryX=1;entryY=0.5;entryDx=0;entryDy=0;exitX=0;exitY=0;exitDx=0;exitDy=0;" edge="1" parent="1" source="HATQA0RXlhxqk_X1tqD0-14" target="HATQA0RXlhxqk_X1tqD0-22">
          <mxGeometry width="50" height="50" relative="1" as="geometry">
            <mxPoint x="295" y="234" as="sourcePoint" />
            <mxPoint x="376" y="185" as="targetPoint" />
          </mxGeometry>
        </mxCell>
        <mxCell id="HATQA0RXlhxqk_X1tqD0-26" value="realizar" style="rhombus;whiteSpace=wrap;html=1;fillColor=#dae8fc;strokeColor=#6c8ebf;" vertex="1" parent="1">
          <mxGeometry x="240" y="420" width="60" height="55" as="geometry" />
        </mxCell>
        <mxCell id="HATQA0RXlhxqk_X1tqD0-29" value="1" style="endArrow=none;html=1;rounded=0;exitX=0.5;exitY=1;exitDx=0;exitDy=0;" edge="1" parent="1" source="HATQA0RXlhxqk_X1tqD0-1">
          <mxGeometry width="50" height="50" relative="1" as="geometry">
            <mxPoint x="390" y="400" as="sourcePoint" />
            <mxPoint x="270" y="420" as="targetPoint" />
          </mxGeometry>
        </mxCell>
        <mxCell id="HATQA0RXlhxqk_X1tqD0-30" value="1" style="endArrow=none;html=1;rounded=0;entryX=0.5;entryY=1;entryDx=0;entryDy=0;" edge="1" parent="1" target="HATQA0RXlhxqk_X1tqD0-2">
          <mxGeometry width="50" height="50" relative="1" as="geometry">
            <mxPoint x="560" y="420" as="sourcePoint" />
            <mxPoint x="415" y="434" as="targetPoint" />
            <Array as="points" />
          </mxGeometry>
        </mxCell>
        <mxCell id="HATQA0RXlhxqk_X1tqD0-32" value="&lt;div&gt;Pagamento&lt;/div&gt;&lt;div&gt;academia&lt;br&gt;&lt;/div&gt;" style="rounded=0;whiteSpace=wrap;html=1;fillColor=#fff2cc;strokeColor=#d6b656;" vertex="1" parent="1">
          <mxGeometry x="230" y="510" width="80" height="40" as="geometry" />
        </mxCell>
        <mxCell id="HATQA0RXlhxqk_X1tqD0-36" value="realizar" style="rhombus;whiteSpace=wrap;html=1;fillColor=#dae8fc;strokeColor=#6c8ebf;" vertex="1" parent="1">
          <mxGeometry x="530" y="420" width="60" height="55" as="geometry" />
        </mxCell>
        <mxCell id="HATQA0RXlhxqk_X1tqD0-38" value="&lt;div&gt;Pagamento&lt;/div&gt;&lt;div&gt;cliente&lt;br&gt;&lt;/div&gt;" style="rounded=0;whiteSpace=wrap;html=1;fillColor=#fff2cc;strokeColor=#d6b656;" vertex="1" parent="1">
          <mxGeometry x="520" y="510" width="80" height="40" as="geometry" />
        </mxCell>
        <mxCell id="HATQA0RXlhxqk_X1tqD0-39" value="1" style="endArrow=none;html=1;rounded=0;exitX=0.5;exitY=1;exitDx=0;exitDy=0;entryX=0.5;entryY=0;entryDx=0;entryDy=0;" edge="1" parent="1" source="HATQA0RXlhxqk_X1tqD0-26" target="HATQA0RXlhxqk_X1tqD0-32">
          <mxGeometry width="50" height="50" relative="1" as="geometry">
            <mxPoint x="390" y="400" as="sourcePoint" />
            <mxPoint x="440" y="350" as="targetPoint" />
          </mxGeometry>
        </mxCell>
        <mxCell id="HATQA0RXlhxqk_X1tqD0-40" value="1" style="endArrow=none;html=1;rounded=0;exitX=0.5;exitY=1;exitDx=0;exitDy=0;entryX=0.5;entryY=0;entryDx=0;entryDy=0;" edge="1" parent="1">
          <mxGeometry width="50" height="50" relative="1" as="geometry">
            <mxPoint x="559.5" y="475" as="sourcePoint" />
            <mxPoint x="559.5" y="510" as="targetPoint" />
            <Array as="points">
              <mxPoint x="559.5" y="490" />
            </Array>
          </mxGeometry>
        </mxCell>
        <mxCell id="HATQA0RXlhxqk_X1tqD0-41" value="método" style="ellipse;whiteSpace=wrap;html=1;fillColor=#eeeeee;strokeColor=#36393d;" vertex="1" parent="1">
          <mxGeometry x="470" y="575" width="70" height="40" as="geometry" />
        </mxCell>
        <mxCell id="HATQA0RXlhxqk_X1tqD0-42" value="método" style="ellipse;whiteSpace=wrap;html=1;fillColor=#eeeeee;strokeColor=#36393d;" vertex="1" parent="1">
          <mxGeometry x="180" y="575" width="70" height="40" as="geometry" />
        </mxCell>
        <mxCell id="HATQA0RXlhxqk_X1tqD0-43" value="valor" style="ellipse;whiteSpace=wrap;html=1;fillColor=#eeeeee;strokeColor=#36393d;" vertex="1" parent="1">
          <mxGeometry x="290" y="575" width="70" height="40" as="geometry" />
        </mxCell>
        <mxCell id="HATQA0RXlhxqk_X1tqD0-45" value="&lt;div&gt;id pagamento&lt;/div&gt;&lt;div&gt;academia&lt;br&gt;&lt;/div&gt;" style="ellipse;whiteSpace=wrap;html=1;fillColor=#cdeb8b;strokeColor=#36393d;" vertex="1" parent="1">
          <mxGeometry x="225" y="615" width="90" height="55" as="geometry" />
        </mxCell>
        <mxCell id="HATQA0RXlhxqk_X1tqD0-46" value="&lt;div&gt;id pagamento&lt;/div&gt;&lt;div&gt;cliente&lt;br&gt;&lt;/div&gt;" style="ellipse;whiteSpace=wrap;html=1;fillColor=#cdeb8b;strokeColor=#36393d;" vertex="1" parent="1">
          <mxGeometry x="512.5" y="607.5" width="97.5" height="62.5" as="geometry" />
        </mxCell>
        <mxCell id="HATQA0RXlhxqk_X1tqD0-47" value="valor" style="ellipse;whiteSpace=wrap;html=1;fillColor=#eeeeee;strokeColor=#36393d;" vertex="1" parent="1">
          <mxGeometry x="590" y="575" width="70" height="40" as="geometry" />
        </mxCell>
        <mxCell id="HATQA0RXlhxqk_X1tqD0-48" value="" style="endArrow=none;html=1;rounded=0;entryX=0.5;entryY=0;entryDx=0;entryDy=0;" edge="1" parent="1" target="HATQA0RXlhxqk_X1tqD0-42">
          <mxGeometry width="50" height="50" relative="1" as="geometry">
            <mxPoint x="270" y="550" as="sourcePoint" />
            <mxPoint x="440" y="350" as="targetPoint" />
          </mxGeometry>
        </mxCell>
        <mxCell id="HATQA0RXlhxqk_X1tqD0-54" value="" style="endArrow=none;html=1;rounded=0;entryX=0.5;entryY=0;entryDx=0;entryDy=0;" edge="1" parent="1" target="HATQA0RXlhxqk_X1tqD0-41">
          <mxGeometry width="50" height="50" relative="1" as="geometry">
            <mxPoint x="560" y="550" as="sourcePoint" />
            <mxPoint x="440" y="380" as="targetPoint" />
          </mxGeometry>
        </mxCell>
        <mxCell id="HATQA0RXlhxqk_X1tqD0-55" value="" style="endArrow=none;html=1;rounded=0;exitX=0.5;exitY=0;exitDx=0;exitDy=0;" edge="1" parent="1" source="HATQA0RXlhxqk_X1tqD0-47">
          <mxGeometry width="50" height="50" relative="1" as="geometry">
            <mxPoint x="390" y="430" as="sourcePoint" />
            <mxPoint x="560" y="550" as="targetPoint" />
          </mxGeometry>
        </mxCell>
        <mxCell id="HATQA0RXlhxqk_X1tqD0-56" value="" style="endArrow=none;html=1;rounded=0;exitX=0.5;exitY=0;exitDx=0;exitDy=0;" edge="1" parent="1" source="HATQA0RXlhxqk_X1tqD0-43">
          <mxGeometry width="50" height="50" relative="1" as="geometry">
            <mxPoint x="390" y="430" as="sourcePoint" />
            <mxPoint x="270" y="550" as="targetPoint" />
          </mxGeometry>
        </mxCell>
        <mxCell id="HATQA0RXlhxqk_X1tqD0-57" value="" style="endArrow=none;html=1;rounded=0;exitX=0.5;exitY=1;exitDx=0;exitDy=0;entryX=0.5;entryY=0;entryDx=0;entryDy=0;" edge="1" parent="1" source="HATQA0RXlhxqk_X1tqD0-32" target="HATQA0RXlhxqk_X1tqD0-45">
          <mxGeometry width="50" height="50" relative="1" as="geometry">
            <mxPoint x="390" y="430" as="sourcePoint" />
            <mxPoint x="440" y="380" as="targetPoint" />
          </mxGeometry>
        </mxCell>
        <mxCell id="HATQA0RXlhxqk_X1tqD0-58" value="" style="endArrow=none;html=1;rounded=0;entryX=0.5;entryY=1;entryDx=0;entryDy=0;exitX=0.5;exitY=0;exitDx=0;exitDy=0;" edge="1" parent="1" source="HATQA0RXlhxqk_X1tqD0-46" target="HATQA0RXlhxqk_X1tqD0-38">
          <mxGeometry width="50" height="50" relative="1" as="geometry">
            <mxPoint x="560" y="610" as="sourcePoint" />
            <mxPoint x="440" y="380" as="targetPoint" />
          </mxGeometry>
        </mxCell>
        <mxCell id="HATQA0RXlhxqk_X1tqD0-59" value="adicionar" style="rhombus;whiteSpace=wrap;html=1;fillColor=#dae8fc;strokeColor=#6c8ebf;" vertex="1" parent="1">
          <mxGeometry x="390" y="400" width="60" height="55" as="geometry" />
        </mxCell>
        <mxCell id="HATQA0RXlhxqk_X1tqD0-60" value="" style="endArrow=none;html=1;rounded=0;entryX=0.5;entryY=1;entryDx=0;entryDy=0;exitX=1;exitY=0.5;exitDx=0;exitDy=0;" edge="1" parent="1" source="HATQA0RXlhxqk_X1tqD0-2" target="HATQA0RXlhxqk_X1tqD0-63">
          <mxGeometry width="50" height="50" relative="1" as="geometry">
            <mxPoint x="390" y="430" as="sourcePoint" />
            <mxPoint x="440" y="380" as="targetPoint" />
          </mxGeometry>
        </mxCell>
        <mxCell id="HATQA0RXlhxqk_X1tqD0-63" value="email_cliente" style="ellipse;whiteSpace=wrap;html=1;fillColor=#eeeeee;strokeColor=#36393d;" vertex="1" parent="1">
          <mxGeometry x="580" y="272.5" width="80" height="40" as="geometry" />
        </mxCell>
        <mxCell id="HATQA0RXlhxqk_X1tqD0-64" value="&lt;div&gt;nome_&lt;/div&gt;&lt;div&gt;cliente&lt;br&gt;&lt;/div&gt;" style="ellipse;whiteSpace=wrap;html=1;fillColor=#eeeeee;strokeColor=#36393d;" vertex="1" parent="1">
          <mxGeometry x="660" y="290" width="70" height="40" as="geometry" />
        </mxCell>
        <mxCell id="HATQA0RXlhxqk_X1tqD0-65" value="senha" style="ellipse;whiteSpace=wrap;html=1;fillColor=#eeeeee;strokeColor=#36393d;" vertex="1" parent="1">
          <mxGeometry x="740" y="310" width="70" height="40" as="geometry" />
        </mxCell>
        <mxCell id="HATQA0RXlhxqk_X1tqD0-66" value="cpf" style="ellipse;whiteSpace=wrap;html=1;fillColor=#eeeeee;strokeColor=#36393d;" vertex="1" parent="1">
          <mxGeometry x="710" y="360" width="70" height="40" as="geometry" />
        </mxCell>
        <mxCell id="HATQA0RXlhxqk_X1tqD0-67" value="&lt;u&gt;id cliente&lt;/u&gt;" style="ellipse;whiteSpace=wrap;html=1;fillColor=#cdeb8b;strokeColor=#36393d;" vertex="1" parent="1">
          <mxGeometry x="620" y="370" width="70" height="40" as="geometry" />
        </mxCell>
        <mxCell id="HATQA0RXlhxqk_X1tqD0-68" value="" style="endArrow=none;html=1;rounded=0;entryX=1;entryY=0.5;entryDx=0;entryDy=0;exitX=0.029;exitY=0.725;exitDx=0;exitDy=0;exitPerimeter=0;" edge="1" parent="1" source="HATQA0RXlhxqk_X1tqD0-64" target="HATQA0RXlhxqk_X1tqD0-2">
          <mxGeometry width="50" height="50" relative="1" as="geometry">
            <mxPoint x="390" y="430" as="sourcePoint" />
            <mxPoint x="440" y="380" as="targetPoint" />
          </mxGeometry>
        </mxCell>
        <mxCell id="HATQA0RXlhxqk_X1tqD0-69" value="" style="endArrow=none;html=1;rounded=0;entryX=1;entryY=0.5;entryDx=0;entryDy=0;exitX=0.029;exitY=0.25;exitDx=0;exitDy=0;exitPerimeter=0;" edge="1" parent="1" source="HATQA0RXlhxqk_X1tqD0-66" target="HATQA0RXlhxqk_X1tqD0-2">
          <mxGeometry width="50" height="50" relative="1" as="geometry">
            <mxPoint x="390" y="430" as="sourcePoint" />
            <mxPoint x="440" y="380" as="targetPoint" />
          </mxGeometry>
        </mxCell>
        <mxCell id="HATQA0RXlhxqk_X1tqD0-70" value="" style="endArrow=none;html=1;rounded=0;entryX=1;entryY=0.5;entryDx=0;entryDy=0;" edge="1" parent="1" target="HATQA0RXlhxqk_X1tqD0-2">
          <mxGeometry width="50" height="50" relative="1" as="geometry">
            <mxPoint x="740" y="330" as="sourcePoint" />
            <mxPoint x="440" y="380" as="targetPoint" />
          </mxGeometry>
        </mxCell>
        <mxCell id="HATQA0RXlhxqk_X1tqD0-71" value="" style="endArrow=none;html=1;rounded=0;entryX=1;entryY=0.5;entryDx=0;entryDy=0;exitX=0;exitY=0;exitDx=0;exitDy=0;" edge="1" parent="1" source="HATQA0RXlhxqk_X1tqD0-67" target="HATQA0RXlhxqk_X1tqD0-2">
          <mxGeometry width="50" height="50" relative="1" as="geometry">
            <mxPoint x="390" y="430" as="sourcePoint" />
            <mxPoint x="440" y="380" as="targetPoint" />
          </mxGeometry>
        </mxCell>
        <mxCell id="HATQA0RXlhxqk_X1tqD0-73" value="cnpj" style="ellipse;whiteSpace=wrap;html=1;fillColor=#eeeeee;strokeColor=#36393d;" vertex="1" parent="1">
          <mxGeometry x="180" y="260" width="80" height="40" as="geometry" />
        </mxCell>
        <mxCell id="HATQA0RXlhxqk_X1tqD0-75" value="&lt;div&gt;nome_&lt;/div&gt;&lt;div&gt;academia&lt;br&gt;&lt;/div&gt;" style="ellipse;whiteSpace=wrap;html=1;fillColor=#eeeeee;strokeColor=#36393d;" vertex="1" parent="1">
          <mxGeometry x="110" y="250" width="70" height="40" as="geometry" />
        </mxCell>
        <mxCell id="HATQA0RXlhxqk_X1tqD0-76" value="localização" style="ellipse;whiteSpace=wrap;html=1;fillColor=#eeeeee;strokeColor=#36393d;" vertex="1" parent="1">
          <mxGeometry x="60" y="280" width="70" height="40" as="geometry" />
        </mxCell>
        <mxCell id="HATQA0RXlhxqk_X1tqD0-77" value="destaque" style="ellipse;whiteSpace=wrap;html=1;fillColor=#eeeeee;strokeColor=#36393d;" vertex="1" parent="1">
          <mxGeometry x="10" y="310" width="70" height="40" as="geometry" />
        </mxCell>
        <mxCell id="HATQA0RXlhxqk_X1tqD0-78" value="&lt;div&gt;email_&lt;/div&gt;&lt;div&gt;academia&lt;br&gt;&lt;/div&gt;" style="ellipse;whiteSpace=wrap;html=1;fillColor=#eeeeee;strokeColor=#36393d;" vertex="1" parent="1">
          <mxGeometry x="50" y="350" width="70" height="40" as="geometry" />
        </mxCell>
        <mxCell id="HATQA0RXlhxqk_X1tqD0-80" value="&lt;div&gt;senha_&lt;/div&gt;&lt;div&gt;academia&lt;br&gt;&lt;/div&gt;" style="ellipse;whiteSpace=wrap;html=1;fillColor=#eeeeee;strokeColor=#36393d;" vertex="1" parent="1">
          <mxGeometry x="120" y="367.5" width="70" height="40" as="geometry" />
        </mxCell>
        <mxCell id="HATQA0RXlhxqk_X1tqD0-81" value="&lt;u&gt;id academia&lt;/u&gt;" style="ellipse;whiteSpace=wrap;html=1;fillColor=#cdeb8b;strokeColor=#36393d;" vertex="1" parent="1">
          <mxGeometry x="190" y="390" width="70" height="40" as="geometry" />
        </mxCell>
        <mxCell id="HATQA0RXlhxqk_X1tqD0-82" value="" style="endArrow=none;html=1;rounded=0;entryX=0.5;entryY=1;entryDx=0;entryDy=0;exitX=0;exitY=0.5;exitDx=0;exitDy=0;" edge="1" parent="1" source="HATQA0RXlhxqk_X1tqD0-1" target="HATQA0RXlhxqk_X1tqD0-73">
          <mxGeometry width="50" height="50" relative="1" as="geometry">
            <mxPoint x="390" y="430" as="sourcePoint" />
            <mxPoint x="440" y="380" as="targetPoint" />
          </mxGeometry>
        </mxCell>
        <mxCell id="HATQA0RXlhxqk_X1tqD0-83" value="" style="endArrow=none;html=1;rounded=0;entryX=1;entryY=1;entryDx=0;entryDy=0;exitX=0;exitY=0.5;exitDx=0;exitDy=0;" edge="1" parent="1" source="HATQA0RXlhxqk_X1tqD0-1" target="HATQA0RXlhxqk_X1tqD0-75">
          <mxGeometry width="50" height="50" relative="1" as="geometry">
            <mxPoint x="390" y="430" as="sourcePoint" />
            <mxPoint x="440" y="380" as="targetPoint" />
          </mxGeometry>
        </mxCell>
        <mxCell id="HATQA0RXlhxqk_X1tqD0-84" value="" style="endArrow=none;html=1;rounded=0;entryX=1;entryY=1;entryDx=0;entryDy=0;" edge="1" parent="1" target="HATQA0RXlhxqk_X1tqD0-76">
          <mxGeometry width="50" height="50" relative="1" as="geometry">
            <mxPoint x="230" y="340" as="sourcePoint" />
            <mxPoint x="440" y="380" as="targetPoint" />
          </mxGeometry>
        </mxCell>
        <mxCell id="HATQA0RXlhxqk_X1tqD0-85" value="" style="endArrow=none;html=1;rounded=0;entryX=1;entryY=0.5;entryDx=0;entryDy=0;exitX=0;exitY=0.5;exitDx=0;exitDy=0;" edge="1" parent="1" source="HATQA0RXlhxqk_X1tqD0-1" target="HATQA0RXlhxqk_X1tqD0-77">
          <mxGeometry width="50" height="50" relative="1" as="geometry">
            <mxPoint x="390" y="430" as="sourcePoint" />
            <mxPoint x="440" y="380" as="targetPoint" />
          </mxGeometry>
        </mxCell>
        <mxCell id="HATQA0RXlhxqk_X1tqD0-86" value="" style="endArrow=none;html=1;rounded=0;entryX=1;entryY=0;entryDx=0;entryDy=0;" edge="1" parent="1" target="HATQA0RXlhxqk_X1tqD0-78">
          <mxGeometry width="50" height="50" relative="1" as="geometry">
            <mxPoint x="230" y="340" as="sourcePoint" />
            <mxPoint x="440" y="380" as="targetPoint" />
          </mxGeometry>
        </mxCell>
        <mxCell id="HATQA0RXlhxqk_X1tqD0-87" value="" style="endArrow=none;html=1;rounded=0;entryX=0.6;entryY=-0.062;entryDx=0;entryDy=0;entryPerimeter=0;exitX=0;exitY=0.5;exitDx=0;exitDy=0;" edge="1" parent="1" source="HATQA0RXlhxqk_X1tqD0-1" target="HATQA0RXlhxqk_X1tqD0-80">
          <mxGeometry width="50" height="50" relative="1" as="geometry">
            <mxPoint x="390" y="430" as="sourcePoint" />
            <mxPoint x="440" y="380" as="targetPoint" />
          </mxGeometry>
        </mxCell>
        <mxCell id="HATQA0RXlhxqk_X1tqD0-88" value="" style="endArrow=none;html=1;rounded=0;entryX=0.5;entryY=0;entryDx=0;entryDy=0;exitX=0;exitY=0.5;exitDx=0;exitDy=0;" edge="1" parent="1" source="HATQA0RXlhxqk_X1tqD0-1" target="HATQA0RXlhxqk_X1tqD0-81">
          <mxGeometry width="50" height="50" relative="1" as="geometry">
            <mxPoint x="390" y="430" as="sourcePoint" />
            <mxPoint x="440" y="380" as="targetPoint" />
          </mxGeometry>
        </mxCell>
        <mxCell id="HATQA0RXlhxqk_X1tqD0-89" value="1" style="endArrow=none;html=1;rounded=0;entryX=0;entryY=1;entryDx=0;entryDy=0;exitX=1;exitY=0;exitDx=0;exitDy=0;" edge="1" parent="1" source="HATQA0RXlhxqk_X1tqD0-59" target="HATQA0RXlhxqk_X1tqD0-2">
          <mxGeometry width="50" height="50" relative="1" as="geometry">
            <mxPoint x="450" y="428" as="sourcePoint" />
            <mxPoint x="440" y="410" as="targetPoint" />
          </mxGeometry>
        </mxCell>
        <mxCell id="HATQA0RXlhxqk_X1tqD0-90" value="N" style="endArrow=none;html=1;rounded=0;entryX=1;entryY=1;entryDx=0;entryDy=0;exitX=0;exitY=0;exitDx=0;exitDy=0;" edge="1" parent="1" source="HATQA0RXlhxqk_X1tqD0-59" target="HATQA0RXlhxqk_X1tqD0-1">
          <mxGeometry width="50" height="50" relative="1" as="geometry">
            <mxPoint x="390" y="460" as="sourcePoint" />
            <mxPoint x="440" y="410" as="targetPoint" />
          </mxGeometry>
        </mxCell>
        <mxCell id="HATQA0RXlhxqk_X1tqD0-92" value="&lt;u&gt;id favorito&lt;/u&gt;" style="ellipse;whiteSpace=wrap;html=1;fillColor=#cdeb8b;strokeColor=#36393d;" vertex="1" parent="1">
          <mxGeometry x="380" y="600" width="80" height="50" as="geometry" />
        </mxCell>
        <mxCell id="HATQA0RXlhxqk_X1tqD0-98" value="" style="rounded=0;whiteSpace=wrap;html=1;fillColor=#fff2cc;strokeColor=#d6b656;" vertex="1" parent="1">
          <mxGeometry x="380" y="490" width="80" height="40" as="geometry" />
        </mxCell>
        <mxCell id="HATQA0RXlhxqk_X1tqD0-100" value="Favoritar" style="rounded=0;whiteSpace=wrap;html=1;fillColor=#fff2cc;strokeColor=#d6b656;" vertex="1" parent="1">
          <mxGeometry x="390" y="500" width="60" height="20" as="geometry" />
        </mxCell>
        <mxCell id="HATQA0RXlhxqk_X1tqD0-102" value="" style="endArrow=none;html=1;rounded=0;exitX=0.5;exitY=1;exitDx=0;exitDy=0;entryX=0.5;entryY=0;entryDx=0;entryDy=0;" edge="1" parent="1" source="HATQA0RXlhxqk_X1tqD0-59" target="HATQA0RXlhxqk_X1tqD0-98">
          <mxGeometry width="50" height="50" relative="1" as="geometry">
            <mxPoint x="390" y="460" as="sourcePoint" />
            <mxPoint x="440" y="410" as="targetPoint" />
          </mxGeometry>
        </mxCell>
        <mxCell id="HATQA0RXlhxqk_X1tqD0-103" value="" style="endArrow=none;html=1;rounded=0;exitX=0.5;exitY=1;exitDx=0;exitDy=0;entryX=0.5;entryY=0;entryDx=0;entryDy=0;" edge="1" parent="1" source="HATQA0RXlhxqk_X1tqD0-98" target="HATQA0RXlhxqk_X1tqD0-92">
          <mxGeometry width="50" height="50" relative="1" as="geometry">
            <mxPoint x="390" y="460" as="sourcePoint" />
            <mxPoint x="440" y="410" as="targetPoint" />
          </mxGeometry>
        </mxCell>
        <mxCell id="HATQA0RXlhxqk_X1tqD0-104" value="nota" style="ellipse;whiteSpace=wrap;html=1;fillColor=#eeeeee;strokeColor=#36393d;" vertex="1" parent="1">
          <mxGeometry x="270" y="90" width="80" height="40" as="geometry" />
        </mxCell>
        <mxCell id="HATQA0RXlhxqk_X1tqD0-105" value="comentario" style="ellipse;whiteSpace=wrap;html=1;fillColor=#eeeeee;strokeColor=#36393d;" vertex="1" parent="1">
          <mxGeometry x="480" y="90" width="80" height="40" as="geometry" />
        </mxCell>
        <mxCell id="HATQA0RXlhxqk_X1tqD0-106" value="&lt;u&gt;id avaliação&lt;br&gt;&lt;/u&gt;" style="ellipse;whiteSpace=wrap;html=1;fillColor=#cdeb8b;strokeColor=#36393d;" vertex="1" parent="1">
          <mxGeometry x="370" y="50" width="90" height="60" as="geometry" />
        </mxCell>
        <mxCell id="HATQA0RXlhxqk_X1tqD0-107" value="" style="endArrow=none;html=1;rounded=0;entryX=0.5;entryY=0;entryDx=0;entryDy=0;exitX=0.5;exitY=1;exitDx=0;exitDy=0;" edge="1" parent="1" source="HATQA0RXlhxqk_X1tqD0-106" target="HATQA0RXlhxqk_X1tqD0-23">
          <mxGeometry width="50" height="50" relative="1" as="geometry">
            <mxPoint x="390" y="370" as="sourcePoint" />
            <mxPoint x="440" y="320" as="targetPoint" />
          </mxGeometry>
        </mxCell>
        <mxCell id="HATQA0RXlhxqk_X1tqD0-108" value="" style="endArrow=none;html=1;rounded=0;entryX=0.5;entryY=1;entryDx=0;entryDy=0;exitX=0.5;exitY=0;exitDx=0;exitDy=0;" edge="1" parent="1" source="HATQA0RXlhxqk_X1tqD0-23" target="HATQA0RXlhxqk_X1tqD0-104">
          <mxGeometry width="50" height="50" relative="1" as="geometry">
            <mxPoint x="390" y="370" as="sourcePoint" />
            <mxPoint x="440" y="320" as="targetPoint" />
          </mxGeometry>
        </mxCell>
        <mxCell id="HATQA0RXlhxqk_X1tqD0-109" value="" style="endArrow=none;html=1;rounded=0;entryX=0.5;entryY=1;entryDx=0;entryDy=0;exitX=0.5;exitY=0;exitDx=0;exitDy=0;" edge="1" parent="1" source="HATQA0RXlhxqk_X1tqD0-22" target="HATQA0RXlhxqk_X1tqD0-105">
          <mxGeometry width="50" height="50" relative="1" as="geometry">
            <mxPoint x="390" y="370" as="sourcePoint" />
            <mxPoint x="440" y="320" as="targetPoint" />
          </mxGeometry>
        </mxCell>
      </root>
    </mxGraphModel>
  </diagram>
</mxfile>
